# xmcd CD database file
#
# Track frame offsets:
#	150
#	15945
#	34348
#	44079
#	58320
#	75291
#	92983
#	107015
#	119724
#	135499
#	148040
#	162240
#	181077
#	194489
#	217639
#	231411
#
# Disc length: 3328 seconds
#
# Revision: 0
# Processed by: cddbd v1.5.2PL0 Copyright (c) Steve Scherf et al.
# Submitted via: CDex 1.51
#
DISCID=de0cfe10
DTITLE=Norma Valles - It's Good To Be Home
DYEAR=1900
DGENRE=Country
TTITLE0=It's Good To Be Home
TTITLE1=Forever And For Always
TTITLE2=Back In Baby's Arms
TTITLE3=Could I Have This Dance
TTITLE4=Mississippi Girl
TTITLE5=Crazy
TTITLE6=By The Time I Get to Phoenix
TTITLE7=Stand By Your Man
TTITLE8=Blue Bayou
TTITLE9=Always On My Mind
TTITLE10=In My Daughter's Eyes
TTITLE11=The Wind Beneath My Wings
TTITLE12=Born To Lose
TTITLE13=My Way
TTITLE14=The Rose
TTITLE15=You Raise Me Up
EXTD=
EXTT0=
EXTT1=
EXTT2=
EXTT3=
EXTT4=
EXTT5=
EXTT6=
EXTT7=
EXTT8=
EXTT9=
EXTT10=
EXTT11=
EXTT12=
EXTT13=
EXTT14=
EXTT15=
PLAYORDER=
